<?xml version="1.0" encoding="utf-8"?>
<!-- Generator: Adobe Illustrator 18.0.0, SVG Export Plug-In . SVG Version: 6.00 Build 0)  -->
<!DOCTYPE svg PUBLIC "-//W3C//DTD SVG 1.1//EN" "http://www.w3.org/Graphics/SVG/1.1/DTD/svg11.dtd">
<svg version="1.1" id="Layer_1" xmlns="http://www.w3.org/2000/svg" xmlns:xlink="http://www.w3.org/1999/xlink" x="0px" y="0px"
	 viewBox="0 0 312.1 70.7" enable-background="new 0 0 312.1 70.7" xml:space="preserve">
<g>
	<g>
		<path fill="#231F20" d="M53.8,32.5V23h2v9.6H53.8z"/>
		<path fill="#231F20" d="M66.7,32.5h-2.6L60,25.3h-0.1c0.1,1.3,0.1,2.2,0.1,2.7v4.5h-1.8V23h2.6l4.2,7.2h0
			c-0.1-1.2-0.1-2.1-0.1-2.6V23h1.8V32.5z"/>
		<path fill="#231F20" d="M74.8,29.9c0,0.9-0.3,1.5-0.9,2c-0.6,0.5-1.5,0.7-2.6,0.7c-1,0-1.9-0.2-2.7-0.6v-1.9
			c0.6,0.3,1.2,0.5,1.6,0.6c0.4,0.1,0.9,0.2,1.2,0.2c0.4,0,0.8-0.1,1-0.3s0.4-0.4,0.4-0.8c0-0.2-0.1-0.4-0.2-0.5
			c-0.1-0.1-0.3-0.3-0.5-0.4s-0.6-0.4-1.2-0.6c-0.6-0.3-1-0.5-1.3-0.8s-0.5-0.5-0.7-0.9s-0.3-0.7-0.3-1.2c0-0.8,0.3-1.5,0.9-2
			c0.6-0.5,1.4-0.7,2.4-0.7c0.5,0,1,0.1,1.4,0.2s0.9,0.3,1.4,0.5l-0.7,1.6c-0.5-0.2-0.9-0.4-1.3-0.4c-0.3-0.1-0.7-0.1-1-0.1
			c-0.4,0-0.7,0.1-0.9,0.3c-0.2,0.2-0.3,0.4-0.3,0.7c0,0.2,0,0.3,0.1,0.5c0.1,0.1,0.2,0.3,0.4,0.4c0.2,0.1,0.6,0.3,1.3,0.7
			c0.9,0.4,1.5,0.9,1.8,1.3C74.7,28.7,74.8,29.2,74.8,29.9z"/>
		<path fill="#231F20" d="M80.3,32.5h-2v-7.9h-2.6V23h7.2v1.7h-2.6V32.5z"/>
		<path fill="#231F20" d="M84.4,32.5V23h2v9.6H84.4z"/>
		<path fill="#231F20" d="M92.5,32.5h-2v-7.9h-2.6V23h7.2v1.7h-2.6V32.5z"/>
		<path fill="#231F20" d="M104.4,23v6.2c0,0.7-0.2,1.3-0.5,1.9s-0.8,0.9-1.4,1.2c-0.6,0.3-1.3,0.4-2.1,0.4c-1.2,0-2.2-0.3-2.9-0.9
			c-0.7-0.6-1-1.5-1-2.6V23h2v5.9c0,0.7,0.1,1.3,0.4,1.6c0.3,0.3,0.8,0.5,1.5,0.5c0.7,0,1.1-0.2,1.4-0.5c0.3-0.3,0.4-0.9,0.4-1.6V23
			H104.4z"/>
		<path fill="#231F20" d="M110.5,32.5h-2v-7.9h-2.6V23h7.2v1.7h-2.6V32.5z"/>
		<path fill="#231F20" d="M123.2,27.7c0,1.6-0.4,2.8-1.2,3.7c-0.8,0.9-1.9,1.3-3.4,1.3s-2.6-0.4-3.4-1.3c-0.8-0.9-1.2-2.1-1.2-3.7
			s0.4-2.8,1.2-3.6c0.8-0.8,1.9-1.3,3.4-1.3c1.5,0,2.6,0.4,3.4,1.3C122.8,24.9,123.2,26.1,123.2,27.7z M116.2,27.7
			c0,1.1,0.2,1.9,0.6,2.4c0.4,0.5,1,0.8,1.8,0.8c1.6,0,2.4-1.1,2.4-3.2c0-2.2-0.8-3.2-2.4-3.2c-0.8,0-1.4,0.3-1.8,0.8
			C116.5,25.9,116.2,26.7,116.2,27.7z"/>
		<path fill="#231F20" d="M130.7,32.5h-2V23h5.5v1.7h-3.5v2.5h3.3v1.7h-3.3V32.5z"/>
		<path fill="#231F20" d="M141.6,32.5h-5.5V23h5.5v1.7h-3.5v2.1h3.2v1.7h-3.2v2.5h3.5V32.5z"/>
		<path fill="#231F20" d="M151.6,27.7c0,1.6-0.4,2.8-1.3,3.6s-2.2,1.3-3.9,1.3h-2.7V23h3c1.6,0,2.8,0.4,3.6,1.2
			C151.2,25,151.6,26.2,151.6,27.7z M149.5,27.7c0-2.1-0.9-3.1-2.7-3.1h-1.1v6.2h0.9C148.5,30.8,149.5,29.8,149.5,27.7z"/>
		<path fill="#231F20" d="M159.1,32.5h-5.5V23h5.5v1.7h-3.5v2.1h3.2v1.7h-3.2v2.5h3.5V32.5z"/>
		<path fill="#231F20" d="M163.2,28.9v3.7h-2V23h2.8c1.3,0,2.3,0.2,2.9,0.7s0.9,1.2,0.9,2.2c0,0.6-0.2,1.1-0.5,1.5
			c-0.3,0.4-0.7,0.8-1.3,1c1.4,2.1,2.4,3.5,2.8,4.2h-2.3l-2.3-3.7H163.2z M163.2,27.2h0.7c0.6,0,1.1-0.1,1.4-0.3s0.5-0.5,0.5-1
			c0-0.5-0.2-0.8-0.5-1s-0.8-0.3-1.5-0.3h-0.6V27.2z"/>
		<path fill="#231F20" d="M175.9,32.5l-0.7-2.3h-3.5l-0.7,2.3h-2.2l3.4-9.6h2.5l3.4,9.6H175.9z M174.7,28.5c-0.6-2.1-1-3.2-1.1-3.5
			c-0.1-0.3-0.1-0.5-0.2-0.6c-0.1,0.6-0.6,1.9-1.2,4.1H174.7z"/>
	</g>
	<g>
		<path fill="#231F20" d="M179.4,32.5V23h2v7.9h3.9v1.7H179.4z"/>
	</g>
	<g>
		<path fill="#231F20" d="M61.7,43c0,1.6-0.4,2.8-1.3,3.6c-0.9,0.8-2.2,1.3-3.9,1.3h-2.7v-9.6h3c1.6,0,2.8,0.4,3.6,1.2
			C61.3,40.3,61.7,41.5,61.7,43z M59.6,43c0-2.1-0.9-3.1-2.7-3.1h-1.1v6.2h0.9C58.6,46.2,59.6,45.1,59.6,43z"/>
		<path fill="#231F20" d="M69.3,47.8h-5.5v-9.6h5.5v1.7h-3.5V42H69v1.7h-3.2v2.5h3.5V47.8z"/>
	</g>
	<g>
		<path fill="#231F20" d="M80.3,47.8h-5.5v-9.6h5.5v1.7h-3.5V42h3.2v1.7h-3.2v2.5h3.5V47.8z"/>
		<path fill="#231F20" d="M90.3,43c0,1.6-0.4,2.8-1.3,3.6c-0.9,0.8-2.2,1.3-3.9,1.3h-2.7v-9.6h3c1.6,0,2.8,0.4,3.6,1.2
			C89.9,40.3,90.3,41.5,90.3,43z M88.2,43c0-2.1-0.9-3.1-2.7-3.1h-1.1v6.2h0.9C87.2,46.2,88.2,45.1,88.2,43z"/>
		<path fill="#231F20" d="M100.1,38.3v6.2c0,0.7-0.2,1.3-0.5,1.9s-0.8,0.9-1.4,1.2C97.7,47.8,97,48,96.1,48c-1.2,0-2.2-0.3-2.9-0.9
			s-1-1.5-1-2.6v-6.2h2v5.9c0,0.7,0.1,1.3,0.4,1.6s0.8,0.5,1.5,0.5c0.7,0,1.1-0.2,1.4-0.5c0.3-0.3,0.4-0.9,0.4-1.6v-5.8H100.1z"/>
		<path fill="#231F20" d="M106.6,39.8c-0.8,0-1.4,0.3-1.8,0.9c-0.4,0.6-0.6,1.4-0.6,2.4c0,2.1,0.8,3.2,2.4,3.2
			c0.7,0,1.5-0.2,2.4-0.5v1.7c-0.8,0.3-1.7,0.5-2.6,0.5c-1.4,0-2.5-0.4-3.2-1.3s-1.1-2.1-1.1-3.6c0-1,0.2-1.9,0.5-2.6
			c0.4-0.7,0.9-1.3,1.6-1.7c0.7-0.4,1.5-0.6,2.4-0.6c0.9,0,1.9,0.2,2.8,0.7l-0.7,1.6c-0.4-0.2-0.7-0.3-1.1-0.4
			C107.3,39.9,106.9,39.8,106.6,39.8z"/>
	</g>
	<g>
		<path fill="#231F20" d="M116.9,47.8l-0.7-2.3h-3.5l-0.7,2.3h-2.2l3.4-9.6h2.5l3.4,9.6H116.9z M115.7,43.9c-0.6-2.1-1-3.2-1.1-3.5
			s-0.1-0.5-0.2-0.6c-0.1,0.6-0.6,1.9-1.2,4.1H115.7z"/>
		<path fill="#231F20" d="M124,39.8c-0.8,0-1.4,0.3-1.8,0.9c-0.4,0.6-0.6,1.4-0.6,2.4c0,2.1,0.8,3.2,2.4,3.2c0.7,0,1.5-0.2,2.4-0.5
			v1.7c-0.8,0.3-1.7,0.5-2.6,0.5c-1.4,0-2.5-0.4-3.2-1.3s-1.1-2.1-1.1-3.6c0-1,0.2-1.9,0.5-2.6c0.4-0.7,0.9-1.3,1.6-1.7
			c0.7-0.4,1.5-0.6,2.4-0.6c0.9,0,1.9,0.2,2.8,0.7l-0.7,1.6c-0.4-0.2-0.7-0.3-1.1-0.4C124.8,39.9,124.4,39.8,124,39.8z M125.1,49.5
			c0,0.6-0.2,1-0.5,1.2c-0.3,0.2-0.8,0.4-1.5,0.4c-0.3,0-0.7,0-1-0.1v-1.1c0.1,0,0.3,0.1,0.5,0.1c0.2,0,0.4,0,0.5,0
			c0.3,0,0.5-0.1,0.5-0.4c0-0.4-0.4-0.6-1.1-0.7l0.5-1h1.3l-0.2,0.4c0.3,0.1,0.6,0.3,0.8,0.5C125,49,125.1,49.2,125.1,49.5z"/>
	</g>
	<g>
		<path fill="#231F20" d="M134.7,47.8l-0.7-2.3h-3.5l-0.7,2.3h-2.2l3.4-9.6h2.5l3.4,9.6H134.7z M131.2,36.8c-0.1,0-0.3,0.1-0.4,0.2
			c-0.1,0.1-0.2,0.3-0.3,0.5h-1c0-0.6,0.2-1.1,0.5-1.5c0.3-0.4,0.7-0.5,1.2-0.5c0.2,0,0.4,0,0.5,0.1c0.2,0.1,0.3,0.2,0.5,0.2
			c0.2,0.1,0.3,0.2,0.5,0.2c0.2,0.1,0.3,0.1,0.5,0.1c0.1,0,0.3-0.1,0.4-0.2c0.1-0.1,0.2-0.3,0.3-0.5h1c0,0.6-0.2,1.1-0.5,1.5
			c-0.3,0.4-0.7,0.5-1.2,0.5c-0.2,0-0.4,0-0.5-0.1c-0.2-0.1-0.3-0.2-0.5-0.2s-0.3-0.2-0.5-0.2C131.5,36.9,131.4,36.8,131.2,36.8z
			 M133.5,43.9c-0.6-2.1-1-3.2-1.1-3.5s-0.1-0.5-0.2-0.6c-0.1,0.6-0.6,1.9-1.2,4.1H133.5z"/>
		<path fill="#231F20" d="M146.6,43.1c0,1.6-0.4,2.8-1.2,3.7S143.5,48,142,48s-2.6-0.4-3.4-1.3c-0.8-0.9-1.2-2.1-1.2-3.7
			s0.4-2.8,1.2-3.6c0.8-0.8,1.9-1.3,3.4-1.3c1.5,0,2.6,0.4,3.4,1.3C146.2,40.2,146.6,41.5,146.6,43.1z M139.6,43.1
			c0,1.1,0.2,1.9,0.6,2.4s1,0.8,1.8,0.8c1.6,0,2.4-1.1,2.4-3.2c0-2.2-0.8-3.2-2.4-3.2c-0.8,0-1.4,0.3-1.8,0.8
			C139.8,41.2,139.6,42,139.6,43.1z"/>
	</g>
	<g>
		<path fill="#231F20" d="M150.6,46.4c-0.2,0.9-0.6,1.9-1.2,3.1H148c0.3-1.2,0.5-2.3,0.7-3.3h1.8L150.6,46.4z"/>
		<path fill="#231F20" d="M160.3,39.8c-0.8,0-1.4,0.3-1.8,0.9c-0.4,0.6-0.6,1.4-0.6,2.4c0,2.1,0.8,3.2,2.4,3.2
			c0.7,0,1.5-0.2,2.4-0.5v1.7c-0.8,0.3-1.7,0.5-2.6,0.5c-1.4,0-2.5-0.4-3.2-1.3s-1.1-2.1-1.1-3.6c0-1,0.2-1.9,0.5-2.6
			c0.4-0.7,0.9-1.3,1.6-1.7c0.7-0.4,1.5-0.6,2.4-0.6c0.9,0,1.9,0.2,2.8,0.7l-0.7,1.6c-0.4-0.2-0.7-0.3-1.1-0.4
			C161,39.9,160.7,39.8,160.3,39.8z"/>
	</g>
	<g>
		<path fill="#231F20" d="M164.8,47.8v-9.6h2v9.6H164.8z"/>
		<path fill="#231F20" d="M173.6,37.5c-0.7-0.4-1.2-0.8-1.5-1.2c-0.3,0.4-0.8,0.7-1.5,1.2h-1.3v-0.2c0.8-0.8,1.4-1.5,1.7-2h2.3
			c0.1,0.2,0.4,0.5,0.7,0.9s0.7,0.7,1,1v0.2H173.6z M174.8,47.8h-5.5v-9.6h5.5v1.7h-3.5V42h3.2v1.7h-3.2v2.5h3.5V47.8z"/>
		<path fill="#231F20" d="M185.3,47.8h-2.6l-4.2-7.2h-0.1c0.1,1.3,0.1,2.2,0.1,2.7v4.5h-1.8v-9.6h2.6l4.2,7.2h0
			c-0.1-1.2-0.1-2.1-0.1-2.6v-4.5h1.8V47.8z"/>
		<path fill="#231F20" d="M191.8,39.8c-0.8,0-1.4,0.3-1.8,0.9c-0.4,0.6-0.6,1.4-0.6,2.4c0,2.1,0.8,3.2,2.4,3.2
			c0.7,0,1.5-0.2,2.4-0.5v1.7c-0.8,0.3-1.7,0.5-2.6,0.5c-1.4,0-2.5-0.4-3.2-1.3s-1.1-2.1-1.1-3.6c0-1,0.2-1.9,0.5-2.6
			c0.4-0.7,0.9-1.3,1.6-1.7c0.7-0.4,1.5-0.6,2.4-0.6c0.9,0,1.9,0.2,2.8,0.7l-0.7,1.6c-0.4-0.2-0.7-0.3-1.1-0.4
			C192.5,39.9,192.2,39.8,191.8,39.8z"/>
		<path fill="#231F20" d="M196.3,47.8v-9.6h2v9.6H196.3z"/>
		<path fill="#231F20" d="M206.7,47.8l-0.7-2.3h-3.5l-0.7,2.3h-2.2l3.4-9.6h2.5l3.4,9.6H206.7z M205.5,43.9c-0.6-2.1-1-3.2-1.1-3.5
			s-0.1-0.5-0.2-0.6c-0.1,0.6-0.6,1.9-1.2,4.1H205.5z"/>
	</g>
	<g>
		<path fill="#231F20" d="M219.1,47.8h-5.5v-9.6h5.5v1.7h-3.5V42h3.2v1.7h-3.2v2.5h3.5V47.8z"/>
		<path fill="#231F20" d="M228.3,47.8h-2V40h-2.6v-1.7h7.2V40h-2.6V47.8z"/>
	</g>
	<g>
		<path fill="#231F20" d="M237.9,47.8h-5.5v-9.6h5.5v1.7h-3.5V42h3.2v1.7h-3.2v2.5h3.5V47.8z"/>
		<path fill="#231F20" d="M244,39.8c-0.8,0-1.4,0.3-1.8,0.9c-0.4,0.6-0.6,1.4-0.6,2.4c0,2.1,0.8,3.2,2.4,3.2c0.7,0,1.5-0.2,2.4-0.5
			v1.7c-0.8,0.3-1.7,0.5-2.6,0.5c-1.4,0-2.5-0.4-3.2-1.3s-1.1-2.1-1.1-3.6c0-1,0.2-1.9,0.5-2.6c0.4-0.7,0.9-1.3,1.6-1.7
			c0.7-0.4,1.5-0.6,2.4-0.6c0.9,0,1.9,0.2,2.8,0.7l-0.7,1.6c-0.4-0.2-0.7-0.3-1.1-0.4C244.7,39.9,244.4,39.8,244,39.8z"/>
		<path fill="#231F20" d="M257,47.8h-2.6l-4.2-7.2h-0.1c0.1,1.3,0.1,2.2,0.1,2.7v4.5h-1.8v-9.6h2.6l4.2,7.2h0
			c-0.1-1.2-0.1-2.1-0.1-2.6v-4.5h1.8V47.8z"/>
		<path fill="#231F20" d="M268.2,43.1c0,1.6-0.4,2.8-1.2,3.7s-1.9,1.3-3.4,1.3s-2.6-0.4-3.4-1.3c-0.8-0.9-1.2-2.1-1.2-3.7
			s0.4-2.8,1.2-3.6c0.8-0.8,1.9-1.3,3.4-1.3c1.5,0,2.6,0.4,3.4,1.3C267.8,40.2,268.2,41.5,268.2,43.1z M261.2,43.1
			c0,1.1,0.2,1.9,0.6,2.4s1,0.8,1.8,0.8c1.6,0,2.4-1.1,2.4-3.2c0-2.2-0.8-3.2-2.4-3.2c-0.8,0-1.4,0.3-1.8,0.8
			C261.4,41.2,261.2,42,261.2,43.1z"/>
	</g>
	<g>
		<path fill="#231F20" d="M270.1,47.8v-9.6h2v7.9h3.9v1.7H270.1z"/>
		<path fill="#231F20" d="M286.1,43.1c0,1.6-0.4,2.8-1.2,3.7S283,48,281.6,48s-2.6-0.4-3.4-1.3c-0.8-0.9-1.2-2.1-1.2-3.7
			s0.4-2.8,1.2-3.6c0.8-0.8,1.9-1.3,3.4-1.3c1.5,0,2.6,0.4,3.4,1.3C285.7,40.2,286.1,41.5,286.1,43.1z M279.1,43.1
			c0,1.1,0.2,1.9,0.6,2.4s1,0.8,1.8,0.8c1.6,0,2.4-1.1,2.4-3.2c0-2.2-0.8-3.2-2.4-3.2c-0.8,0-1.4,0.3-1.8,0.8
			C279.3,41.2,279.1,42,279.1,43.1z"/>
	</g>
	<g>
		<path fill="#231F20" d="M292,42.5h3.8v5c-0.6,0.2-1.2,0.3-1.7,0.4s-1.1,0.1-1.7,0.1c-1.4,0-2.5-0.4-3.3-1.3
			c-0.8-0.8-1.1-2.1-1.1-3.7c0-1.5,0.4-2.7,1.3-3.6c0.9-0.9,2.1-1.3,3.7-1.3c1,0,1.9,0.2,2.8,0.6l-0.7,1.6c-0.7-0.3-1.4-0.5-2.2-0.5
			c-0.9,0-1.6,0.3-2.1,0.9s-0.8,1.4-0.8,2.4c0,1,0.2,1.8,0.6,2.4c0.4,0.5,1,0.8,1.9,0.8c0.4,0,0.9,0,1.3-0.1v-2H292V42.5z"/>
		<path fill="#231F20" d="M298.1,47.8v-9.6h2v9.6H298.1z"/>
	</g>
	<g>
		<path fill="#231F20" d="M308.4,47.8l-0.7-2.3h-3.5l-0.7,2.3h-2.2l3.4-9.6h2.5l3.4,9.6H308.4z M307.2,43.9c-0.6-2.1-1-3.2-1.1-3.5
			s-0.1-0.5-0.2-0.6c-0.1,0.6-0.6,1.9-1.2,4.1H307.2z"/>
	</g>
	<path fill="#309F41" d="M30.3,15.9c0,0.7-0.6,1.2-1.2,1.2H18.8c-0.7,0-1.2-0.6-1.2-1.2V5.6c0-0.7,0.6-1.2,1.2-1.2h10.3
		c0.7,0,1.2,0.6,1.2,1.2V15.9L30.3,15.9z"/>
	<path fill="#309F41" d="M45.7,15.9c0,0.7-0.6,1.2-1.2,1.2H34.1c-0.7,0-1.2-0.6-1.2-1.2V5.6c0-0.7,0.6-1.2,1.2-1.2h10.3
		c0.7,0,1.2,0.6,1.2,1.2V15.9L45.7,15.9z"/>
	<path fill="#309F41" d="M45.7,46.7c0,0.7-0.6,1.2-1.2,1.2H34.1c-0.7,0-1.2-0.6-1.2-1.2V36.3c0-0.7,0.6-1.2,1.2-1.2h10.3
		c0.7,0,1.2,0.6,1.2,1.2V46.7L45.7,46.7z"/>
	<path fill="#309F41" d="M15,31.3c0,0.7-0.6,1.2-1.2,1.2H3.4c-0.7,0-1.2-0.6-1.2-1.2V21c0-0.7,0.6-1.2,1.2-1.2h10.3
		c0.7,0,1.2,0.6,1.2,1.2V31.3L15,31.3z"/>
	<path fill="#309F41" d="M30.3,31.3c0,0.7-0.6,1.2-1.2,1.2H18.8c-0.7,0-1.2-0.6-1.2-1.2V21c0-0.7,0.6-1.2,1.2-1.2h10.3
		c0.7,0,1.2,0.6,1.2,1.2V31.3L30.3,31.3z"/>
	<path fill="#309F41" d="M15,46.7c0,0.7-0.6,1.2-1.2,1.2H3.4c-0.7,0-1.2-0.6-1.2-1.2V36.3c0-0.7,0.6-1.2,1.2-1.2h10.3
		c0.7,0,1.2,0.6,1.2,1.2V46.7L15,46.7z"/>
	<path fill="#309F41" d="M30.3,46.7c0,0.7-0.6,1.2-1.2,1.2H18.8c-0.7,0-1.2-0.6-1.2-1.2V36.3c0-0.7,0.6-1.2,1.2-1.2h10.3
		c0.7,0,1.2,0.6,1.2,1.2V46.7L30.3,46.7z"/>
	<path fill="#309F41" d="M15,62c0,0.7-0.6,1.2-1.2,1.2H3.4c-0.7,0-1.2-0.6-1.2-1.2V51.7c0-0.7,0.6-1.2,1.2-1.2h10.3
		c0.7,0,1.2,0.6,1.2,1.2V62L15,62z"/>
	<path fill="#309F41" d="M30.3,62c0,0.7-0.6,1.2-1.2,1.2H18.8c-0.7,0-1.2-0.6-1.2-1.2V51.7c0-0.7,0.6-1.2,1.2-1.2h10.3
		c0.7,0,1.2,0.6,1.2,1.2V62L30.3,62z"/>
	<path fill="#CE181F" d="M15.6,10.8c0,3.9-3.2,7-7,7c-3.9,0-7-3.2-7-7c0-3.9,3.2-7,7-7C12.5,3.7,15.6,6.9,15.6,10.8L15.6,10.8z"/>
	<g>
		<path fill="#231F20" d="M57.1,63.1h-1.2V54h-3.2v-1h7.6v1h-3.2V63.1z"/>
	</g>
	<g>
		<path fill="#231F20" d="M64.4,55.4c0.3,0,0.6,0,0.9,0.1l-0.2,1.1c-0.3-0.1-0.6-0.1-0.8-0.1c-0.6,0-1.1,0.2-1.6,0.7
			c-0.4,0.5-0.7,1.1-0.7,1.9v4.1h-1.2v-7.6h0.9l0.1,1.4h0.1c0.3-0.5,0.6-0.9,1-1.1C63.5,55.5,63.9,55.4,64.4,55.4z"/>
		<path fill="#231F20" d="M66.6,53.5c0-0.3,0.1-0.5,0.2-0.6c0.1-0.1,0.3-0.2,0.5-0.2c0.2,0,0.3,0.1,0.5,0.2s0.2,0.3,0.2,0.6
			c0,0.3-0.1,0.5-0.2,0.6s-0.3,0.2-0.5,0.2c-0.2,0-0.4-0.1-0.5-0.2C66.7,53.9,66.6,53.7,66.6,53.5z M67.9,63.1h-1.2v-7.6h1.2V63.1z"
			/>
		<path fill="#231F20" d="M75,63.1L74.8,62h-0.1c-0.4,0.5-0.8,0.8-1.1,1s-0.8,0.3-1.4,0.3c-0.8,0-1.3-0.2-1.8-0.6
			c-0.4-0.4-0.6-0.9-0.6-1.7c0-1.5,1.2-2.3,3.7-2.4l1.3,0v-0.5c0-0.6-0.1-1-0.4-1.3c-0.3-0.3-0.7-0.4-1.2-0.4
			c-0.6,0-1.3,0.2-2.1,0.6L70.6,56c0.4-0.2,0.8-0.4,1.2-0.5s0.9-0.2,1.3-0.2c0.9,0,1.6,0.2,2,0.6c0.4,0.4,0.7,1,0.7,1.9v5.2H75z
			 M70.7,54.3c0.6-0.6,1-1.1,1.2-1.4c0.2-0.3,0.4-0.5,0.5-0.7h1.2c0.1,0.2,0.3,0.4,0.5,0.8s0.7,0.8,1.2,1.4v0.2h-0.8
			c-0.4-0.3-0.9-0.7-1.5-1.3c-0.6,0.6-1.1,1-1.5,1.3h-0.8V54.3z M72.4,62.3c0.7,0,1.3-0.2,1.7-0.6c0.4-0.4,0.6-0.9,0.6-1.6v-0.7
			l-1.1,0c-0.9,0-1.6,0.2-2,0.4S71,60.5,71,61c0,0.4,0.1,0.7,0.4,0.9S71.9,62.3,72.4,62.3z"/>
		<path fill="#231F20" d="M83.4,63.1v-4.9c0-0.6-0.1-1.1-0.4-1.4c-0.3-0.3-0.7-0.5-1.3-0.5c-0.8,0-1.4,0.2-1.7,0.6s-0.6,1.1-0.6,2.1
			v4h-1.2v-7.6h0.9l0.2,1h0.1c0.2-0.4,0.6-0.7,1-0.9s0.9-0.3,1.4-0.3c0.9,0,1.6,0.2,2.1,0.7c0.5,0.4,0.7,1.1,0.7,2.1v4.9H83.4z"/>
		<path fill="#231F20" d="M93.1,55.5v0.7l-1.4,0.2c0.1,0.2,0.2,0.4,0.3,0.6c0.1,0.3,0.2,0.6,0.2,0.9c0,0.7-0.3,1.3-0.8,1.8
			s-1.2,0.7-2.1,0.7c-0.2,0-0.4,0-0.6-0.1c-0.5,0.3-0.7,0.6-0.7,1c0,0.2,0.1,0.4,0.3,0.5c0.2,0.1,0.5,0.1,0.9,0.1h1.3
			c0.8,0,1.5,0.2,1.9,0.5c0.4,0.3,0.7,0.8,0.7,1.5c0,0.8-0.3,1.5-1,1.9s-1.7,0.7-3,0.7c-1,0-1.8-0.2-2.3-0.6S86,65,86,64.4
			c0-0.5,0.1-0.9,0.4-1.2c0.3-0.3,0.7-0.6,1.2-0.7c-0.2-0.1-0.4-0.2-0.5-0.4C87,61.9,87,61.7,87,61.4c0-0.3,0.1-0.5,0.2-0.7
			c0.1-0.2,0.4-0.4,0.7-0.6c-0.4-0.2-0.7-0.4-1-0.8c-0.2-0.4-0.4-0.8-0.4-1.3c0-0.8,0.2-1.5,0.7-1.9c0.5-0.4,1.2-0.7,2.1-0.7
			c0.4,0,0.8,0,1.1,0.1H93.1z M87.1,64.4c0,0.4,0.2,0.7,0.5,0.9c0.3,0.2,0.8,0.3,1.5,0.3c1,0,1.7-0.1,2.1-0.4s0.7-0.7,0.7-1.2
			c0-0.4-0.1-0.7-0.4-0.9s-0.7-0.2-1.4-0.2h-1.4c-0.5,0-0.9,0.1-1.2,0.4S87.1,63.9,87.1,64.4z M87.7,57.9c0,0.5,0.1,0.9,0.5,1.2
			c0.3,0.3,0.7,0.4,1.3,0.4c1.1,0,1.7-0.5,1.7-1.6c0-1.1-0.6-1.7-1.7-1.7c-0.5,0-1,0.1-1.2,0.4C87.8,56.9,87.7,57.4,87.7,57.9z"/>
		<path fill="#231F20" d="M95.8,55.5v4.9c0,0.6,0.1,1.1,0.4,1.4c0.3,0.3,0.7,0.5,1.3,0.5c0.8,0,1.4-0.2,1.7-0.6
			c0.4-0.4,0.5-1.1,0.5-2.1v-4h1.2v7.6H100l-0.2-1h-0.1c-0.2,0.4-0.6,0.7-1,0.9s-0.9,0.3-1.4,0.3c-0.9,0-1.6-0.2-2.1-0.7
			c-0.5-0.4-0.7-1.1-0.7-2.1v-5H95.8z"/>
		<path fill="#231F20" d="M104.5,63.1h-1.2V52.3h1.2V63.1z"/>
		<path fill="#231F20" d="M113.5,59.3c0,1.2-0.3,2.2-0.9,2.9s-1.5,1-2.6,1c-0.7,0-1.3-0.2-1.8-0.5s-0.9-0.8-1.2-1.4
			s-0.4-1.3-0.4-2.1c0-1.2,0.3-2.2,0.9-2.9c0.6-0.7,1.5-1,2.6-1c1.1,0,1.9,0.4,2.5,1.1C113.2,57.1,113.5,58.1,113.5,59.3z
			 M107.8,59.3c0,1,0.2,1.7,0.6,2.2s1,0.8,1.7,0.8s1.3-0.3,1.7-0.8c0.4-0.5,0.6-1.2,0.6-2.2c0-1-0.2-1.7-0.6-2.2
			c-0.4-0.5-1-0.8-1.7-0.8c-0.8,0-1.3,0.2-1.7,0.7C107.9,57.6,107.8,58.3,107.8,59.3z"/>
		<path fill="#231F20" d="M123.9,63.1l-3.4-9h-0.1c0.1,0.7,0.1,1.6,0.1,2.5v6.4h-1.1V53h1.8l3.2,8.3h0.1l3.2-8.3h1.8v10.1h-1.2v-6.5
			c0-0.7,0-1.6,0.1-2.4h-0.1l-3.5,8.9H123.9z"/>
		<path fill="#231F20" d="M131.9,53.5c0-0.3,0.1-0.5,0.2-0.6c0.1-0.1,0.3-0.2,0.5-0.2c0.2,0,0.3,0.1,0.5,0.2s0.2,0.3,0.2,0.6
			c0,0.3-0.1,0.5-0.2,0.6s-0.3,0.2-0.5,0.2c-0.2,0-0.4-0.1-0.5-0.2C132,53.9,131.9,53.7,131.9,53.5z M133.2,63.1H132v-7.6h1.2V63.1z
			"/>
		<path fill="#231F20" d="M140.8,63.1v-4.9c0-0.6-0.1-1.1-0.4-1.4c-0.3-0.3-0.7-0.5-1.3-0.5c-0.8,0-1.4,0.2-1.7,0.6
			s-0.6,1.1-0.6,2.1v4h-1.2v-7.6h0.9l0.2,1h0.1c0.2-0.4,0.6-0.7,1-0.9s0.9-0.3,1.4-0.3c0.9,0,1.6,0.2,2.1,0.7
			c0.5,0.4,0.7,1.1,0.7,2.1v4.9H140.8z"/>
		<path fill="#231F20" d="M147.5,63.2c-1.1,0-2-0.3-2.7-1c-0.6-0.7-1-1.6-1-2.8c0-1.2,0.3-2.2,0.9-2.9c0.6-0.7,1.4-1.1,2.4-1.1
			c1,0,1.7,0.3,2.3,0.9c0.6,0.6,0.8,1.4,0.8,2.5v0.7h-5.2c0,0.9,0.2,1.6,0.7,2s1,0.7,1.8,0.7c0.8,0,1.6-0.2,2.4-0.5v1
			c-0.4,0.2-0.8,0.3-1.2,0.4S148.1,63.2,147.5,63.2z M147.2,56.3c-0.6,0-1.1,0.2-1.5,0.6s-0.6,0.9-0.6,1.6h4c0-0.7-0.2-1.3-0.5-1.7
			S147.8,56.3,147.2,56.3z"/>
		<path fill="#231F20" d="M152.2,53.5c0-0.3,0.1-0.5,0.2-0.6c0.1-0.1,0.3-0.2,0.5-0.2c0.2,0,0.3,0.1,0.5,0.2s0.2,0.3,0.2,0.6
			c0,0.3-0.1,0.5-0.2,0.6s-0.3,0.2-0.5,0.2c-0.2,0-0.4-0.1-0.5-0.2C152.3,53.9,152.2,53.7,152.2,53.5z M153.4,63.1h-1.2v-7.6h1.2
			V63.1z"/>
		<path fill="#231F20" d="M159.3,55.4c0.3,0,0.6,0,0.9,0.1l-0.2,1.1c-0.3-0.1-0.6-0.1-0.8-0.1c-0.6,0-1.1,0.2-1.6,0.7
			c-0.4,0.5-0.7,1.1-0.7,1.9v4.1h-1.2v-7.6h0.9l0.1,1.4h0.1c0.3-0.5,0.6-0.9,1-1.1C158.4,55.5,158.9,55.4,159.3,55.4z"/>
	</g>
	<g>
		<path fill="#231F20" d="M167.9,59.3c0,1.2-0.3,2.2-0.9,2.9s-1.5,1-2.6,1c-0.7,0-1.3-0.2-1.8-0.5s-0.9-0.8-1.2-1.4
			s-0.4-1.3-0.4-2.1c0-1.2,0.3-2.2,0.9-2.9c0.6-0.7,1.5-1,2.6-1c1.1,0,1.9,0.4,2.5,1.1C167.6,57.1,167.9,58.1,167.9,59.3z
			 M162.2,59.3c0,1,0.2,1.7,0.6,2.2s1,0.8,1.7,0.8s1.3-0.3,1.7-0.8c0.4-0.5,0.6-1.2,0.6-2.2c0-1-0.2-1.7-0.6-2.2
			c-0.4-0.5-1-0.8-1.7-0.8c-0.8,0-1.3,0.2-1.7,0.7C162.4,57.6,162.2,58.3,162.2,59.3z"/>
	</g>
</g>
<g>
</g>
</svg>
